<svg version="1.2" xmlns="http://www.w3.org/2000/svg" viewBox="0 0 800 800" width="800" height="800"><style>.a{fill:#f00}.b{fill:#fff}</style><path class="a" d="m311 144.1c-22.8 0.4-52.3 1.5-65.5 2.3-13.2 0.9-35.3 2.3-49 3.1-13.8 0.9-28.4 2-32.5 2.4-4.1 0.5-14.5 1.8-23 3-8.5 1.2-18.2 2.6-21.5 3.2-3.3 0.6-10 2.7-15 4.7-5 2-12.2 5.7-16 8.3-3.8 2.5-10.4 8-14.6 12-4.2 4.1-9.6 10.3-12 13.9-2.3 3.6-6 10.3-8 15-2.3 5.2-4.6 12.8-5.9 19.5-1.1 6.1-2.5 12.6-3 14.5-0.5 1.9-1.8 12.1-3 22.5-1.1 10.4-2.7 25.1-3.5 32.5-0.8 7.4-2 22.9-2.5 34.5-0.5 11.6-1 41-1 65.5 0 24.5 0.5 53.9 1 65.5 0.6 11.6 1.7 26.4 2.5 33 0.8 6.6 2.4 20.8 3.6 31.5 1.2 10.7 2.5 20.4 2.9 21.5 0.4 1.1 1.5 6 2.4 11 1 5 2.4 11.5 3.3 14.5 0.8 3 1.9 6 2.3 6.5 0.3 0.5 1.6 3.4 2.8 6.3 1.2 2.8 4.3 8.2 7 11.9 2.6 3.7 8.1 10.1 12.2 14.2 4.1 4.1 10.5 9.4 14.3 11.8 3.7 2.4 10.6 5.9 15.5 7.9 5.9 2.4 12.5 4.2 20.7 5.4 6.6 1.1 16.9 2.6 23 3.4 6.1 0.9 16.6 2 23.5 2.6 6.9 0.5 25.8 1.6 42 2.5 16.2 0.8 36 1.9 44 2.5 8 0.6 36 1.5 62.3 2 26.2 0.6 65.8 1 88 1 22.1 0 61.1-0.5 86.7-1 25.6-0.5 52.8-1.4 60.5-2 7.7-0.5 22.8-1.4 33.5-2 10.7-0.6 28-1.7 38.5-2.5 10.5-0.8 22.8-2.1 27.5-3 4.7-0.8 13.9-2.3 20.5-3.4 8.5-1.4 14.7-3.2 21-5.9 5-2.1 12.1-5.9 16-8.4 3.9-2.5 9.9-7.4 13.3-10.9 3.5-3.5 8.5-9.3 11-12.9 2.5-3.6 6.1-9.4 7.8-13 1.7-3.6 3.9-9 4.8-12 0.9-3 2.2-8.9 3-13 0.8-4.1 2.1-11.1 3-15.5 0.8-4.4 2.4-16.5 3.6-27 1.1-10.5 2.5-21.5 3-24.5 0.5-3 1.5-14.7 2.2-26 0.8-12.8 1.3-41.6 1.3-77 0-35.7-0.5-63.1-1.3-74.5-0.7-9.9-1.9-22.5-2.7-28-0.8-5.5-2.4-17.4-3.4-26.5-1.1-9.1-2.9-20.6-4.1-25.5-1.1-4.9-2.7-12.2-3.6-16-0.9-3.8-2.7-9.5-4.1-12.5-1.4-3-2.9-6.4-3.3-7.5-0.4-1.1-2.9-5.1-5.6-9-2.7-3.8-8.3-10.3-12.4-14.4-4.1-4.1-10.5-9.4-14.3-11.8-3.7-2.4-10.4-5.8-14.9-7.6-4.6-1.9-10.1-3.9-12.3-4.5-2.2-0.6-9.9-2.1-17-3.2-7.1-1.2-16.6-2.5-21-3-4.4-0.5-20.8-1.6-36.5-2.5-15.7-0.8-40.4-2.2-55-3-14.6-0.9-50.6-2-80-2.5-29.4-0.5-68.8-0.9-87.5-0.8-18.7 0.1-52.7 0.5-75.5 0.9z"/><path class="b" d="m510.4 242.7v70.6q-27.5-12.3-53.7-18.5-26.2-6.3-49.4-6.3-30.9 0-45.6 8.5-14.8 8.5-14.8 26.4 0 13.4 9.8 21 10.1 7.4 36.3 12.8l36.6 7.3q55.7 11.2 79.2 34 23.5 22.8 23.5 64.9 0 55.2-32.9 82.3-32.6 26.8-99.9 26.8-31.8 0-63.8-6.1-31.9-6-63.9-17.8v-72.7q32 17 61.7 25.7 30 8.5 57.7 8.5 28.2 0 43.1-9.4 15-9.4 15-26.8 0-15.7-10.3-24.2-10-8.5-40.4-15.2l-33.4-7.4q-50-10.7-73.3-34.2-23-23.5-23-63.3 0-49.8 32.2-76.6 32.2-26.9 92.5-26.9 27.5 0 56.6 4.3 29.1 4 60.2 12.3z"/></svg>